<mxfile host="app.diagrams.net" agent="Mozilla/5.0 (Windows NT 10.0; Win64; x64) AppleWebKit/537.36 (KHTML, like Gecko) Chrome/130.0.0.0 Safari/537.36" version="24.8.4">
  <diagram id="R2lEEEUBdFMjLlhIrx00" name="Page-1">
    <mxGraphModel dx="1900" dy="557" grid="1" gridSize="10" guides="1" tooltips="1" connect="1" arrows="1" fold="1" page="1" pageScale="1" pageWidth="850" pageHeight="1100" math="0" shadow="0" extFonts="Permanent Marker^https://fonts.googleapis.com/css?family=Permanent+Marker">
      <root>
        <mxCell id="0" />
        <mxCell id="1" parent="0" />
        <mxCell id="Rq_J5axLeS3DPgupQNah-1" value="Pacientes&lt;div&gt;&lt;br&gt;&lt;/div&gt;" style="whiteSpace=wrap;html=1;align=center;fillColor=#f5f5f5;fontColor=#333333;strokeColor=#666666;" parent="1" vertex="1">
          <mxGeometry x="122" y="200" width="100" height="40" as="geometry" />
        </mxCell>
        <mxCell id="Rq_J5axLeS3DPgupQNah-2" value="Nombre" style="ellipse;whiteSpace=wrap;html=1;align=center;fillColor=#ffcccc;strokeColor=#36393d;" parent="1" vertex="1">
          <mxGeometry x="4" y="124" width="100" height="40" as="geometry" />
        </mxCell>
        <mxCell id="Rq_J5axLeS3DPgupQNah-3" value="Edad&lt;span style=&quot;color: rgba(0, 0, 0, 0); font-family: monospace; font-size: 0px; text-align: start; text-wrap-mode: nowrap;&quot;&gt;%3CmxGraphModel%3E%3Croot%3E%3CmxCell%20id%3D%220%22%2F%3E%3CmxCell%20id%3D%221%22%20parent%3D%220%22%2F%3E%3CmxCell%20id%3D%222%22%20value%3D%22Nombre%22%20style%3D%22ellipse%3BwhiteSpace%3Dwrap%3Bhtml%3D1%3Balign%3Dcenter%3B%22%20vertex%3D%221%22%20parent%3D%221%22%3E%3CmxGeometry%20x%3D%2290%22%20y%3D%22140%22%20width%3D%22100%22%20height%3D%2240%22%20as%3D%22geometry%22%2F%3E%3C%2FmxCell%3E%3C%2Froot%3E%3C%2FmxGraphModel%3E&lt;/span&gt;&lt;span style=&quot;color: rgba(0, 0, 0, 0); font-family: monospace; font-size: 0px; text-align: start; text-wrap-mode: nowrap;&quot;&gt;%3CmxGraphModel%3E%3Croot%3E%3CmxCell%20id%3D%220%22%2F%3E%3CmxCell%20id%3D%221%22%20parent%3D%220%22%2F%3E%3CmxCell%20id%3D%222%22%20value%3D%22Nombre%22%20style%3D%22ellipse%3BwhiteSpace%3Dwrap%3Bhtml%3D1%3Balign%3Dcenter%3B%22%20vertex%3D%221%22%20parent%3D%221%22%3E%3CmxGeometry%20x%3D%2290%22%20y%3D%22140%22%20width%3D%22100%22%20height%3D%2240%22%20as%3D%22geometry%22%2F%3E%3C%2FmxCell%3E%3C%2Froot%3E%3C%2FmxGraphModel%3E&lt;/span&gt;" style="ellipse;whiteSpace=wrap;html=1;align=center;fillColor=#ffcccc;strokeColor=#36393d;" parent="1" vertex="1">
          <mxGeometry x="156" y="123" width="100" height="40" as="geometry" />
        </mxCell>
        <mxCell id="Rq_J5axLeS3DPgupQNah-4" value="Genero" style="ellipse;whiteSpace=wrap;html=1;align=center;fillColor=#ffcccc;strokeColor=#36393d;" parent="1" vertex="1">
          <mxGeometry x="-10" y="201" width="100" height="40" as="geometry" />
        </mxCell>
        <mxCell id="Rq_J5axLeS3DPgupQNah-5" value="Direccion" style="ellipse;whiteSpace=wrap;html=1;align=center;fillColor=#ffcccc;strokeColor=#36393d;" parent="1" vertex="1">
          <mxGeometry x="4" y="270" width="100" height="40" as="geometry" />
        </mxCell>
        <mxCell id="Rq_J5axLeS3DPgupQNah-6" value="PacienteID" style="ellipse;whiteSpace=wrap;html=1;align=center;fontStyle=4;fillColor=#ffcccc;strokeColor=#36393d;" parent="1" vertex="1">
          <mxGeometry x="128" y="297" width="100" height="40" as="geometry" />
        </mxCell>
        <mxCell id="Rq_J5axLeS3DPgupQNah-8" value="" style="endArrow=none;html=1;rounded=0;entryX=1;entryY=1;entryDx=0;entryDy=0;exitX=0;exitY=0;exitDx=0;exitDy=0;" parent="1" source="Rq_J5axLeS3DPgupQNah-1" target="Rq_J5axLeS3DPgupQNah-2" edge="1">
          <mxGeometry width="50" height="50" relative="1" as="geometry">
            <mxPoint x="300" y="320" as="sourcePoint" />
            <mxPoint x="350" y="270" as="targetPoint" />
          </mxGeometry>
        </mxCell>
        <mxCell id="Rq_J5axLeS3DPgupQNah-9" value="" style="endArrow=none;html=1;rounded=0;exitX=0.75;exitY=0;exitDx=0;exitDy=0;entryX=0.5;entryY=1;entryDx=0;entryDy=0;" parent="1" source="Rq_J5axLeS3DPgupQNah-1" target="Rq_J5axLeS3DPgupQNah-3" edge="1">
          <mxGeometry width="50" height="50" relative="1" as="geometry">
            <mxPoint x="140" y="210" as="sourcePoint" />
            <mxPoint x="230" y="170" as="targetPoint" />
          </mxGeometry>
        </mxCell>
        <mxCell id="Rq_J5axLeS3DPgupQNah-10" value="" style="endArrow=none;html=1;rounded=0;entryX=1;entryY=0.5;entryDx=0;entryDy=0;" parent="1" target="Rq_J5axLeS3DPgupQNah-4" edge="1">
          <mxGeometry width="50" height="50" relative="1" as="geometry">
            <mxPoint x="120" y="221" as="sourcePoint" />
            <mxPoint x="110" y="183" as="targetPoint" />
          </mxGeometry>
        </mxCell>
        <mxCell id="Rq_J5axLeS3DPgupQNah-11" value="" style="endArrow=none;html=1;rounded=0;entryX=1;entryY=0;entryDx=0;entryDy=0;" parent="1" target="Rq_J5axLeS3DPgupQNah-5" edge="1">
          <mxGeometry width="50" height="50" relative="1" as="geometry">
            <mxPoint x="130" y="240" as="sourcePoint" />
            <mxPoint x="120" y="193" as="targetPoint" />
          </mxGeometry>
        </mxCell>
        <mxCell id="Rq_J5axLeS3DPgupQNah-12" value="" style="endArrow=none;html=1;rounded=0;entryX=0.5;entryY=0;entryDx=0;entryDy=0;exitX=0.5;exitY=1;exitDx=0;exitDy=0;" parent="1" target="Rq_J5axLeS3DPgupQNah-6" edge="1">
          <mxGeometry width="50" height="50" relative="1" as="geometry">
            <mxPoint x="178" y="240" as="sourcePoint" />
            <mxPoint x="180" y="297" as="targetPoint" />
          </mxGeometry>
        </mxCell>
        <mxCell id="Rq_J5axLeS3DPgupQNah-15" value="Enfermeras" style="whiteSpace=wrap;html=1;align=center;fillColor=#f5f5f5;fontColor=#333333;strokeColor=#666666;" parent="1" vertex="1">
          <mxGeometry x="580" y="200" width="100" height="40" as="geometry" />
        </mxCell>
        <mxCell id="Rq_J5axLeS3DPgupQNah-16" value="Turno" style="ellipse;whiteSpace=wrap;html=1;align=center;fillColor=#ffcccc;strokeColor=#36393d;" parent="1" vertex="1">
          <mxGeometry x="580" y="280" width="100" height="40" as="geometry" />
        </mxCell>
        <mxCell id="Rq_J5axLeS3DPgupQNah-17" value="Nombre&lt;span style=&quot;color: rgba(0, 0, 0, 0); font-family: monospace; font-size: 0px; text-align: start; text-wrap-mode: nowrap;&quot;&gt;%3CmxGraphModel%3E%3Croot%3E%3CmxCell%20id%3D%220%22%2F%3E%3CmxCell%20id%3D%221%22%20parent%3D%220%22%2F%3E%3CmxCell%20id%3D%222%22%20value%3D%22Edad%26lt%3Bspan%20style%3D%26quot%3Bcolor%3A%20rgba(0%2C%200%2C%200%2C%200)%3B%20font-family%3A%20monospace%3B%20font-size%3A%200px%3B%20text-align%3A%20start%3B%20text-wrap-mode%3A%20nowrap%3B%26quot%3B%26gt%3B%253CmxGraphModel%253E%253Croot%253E%253CmxCell%2520id%253D%25220%2522%252F%253E%253CmxCell%2520id%253D%25221%2522%2520parent%253D%25220%2522%252F%253E%253CmxCell%2520id%253D%25222%2522%2520value%253D%2522Nombre%2522%2520style%253D%2522ellipse%253BwhiteSpace%253Dwrap%253Bhtml%253D1%253Balign%253Dcenter%253B%2522%2520vertex%253D%25221%2522%2520parent%253D%25221%2522%253E%253CmxGeometry%2520x%253D%252290%2522%2520y%253D%2522140%2522%2520width%253D%2522100%2522%2520height%253D%252240%2522%2520as%253D%2522geometry%2522%252F%253E%253C%252FmxCell%253E%253C%252Froot%253E%253C%252FmxGraphModel%253E%26lt%3B%2Fspan%26gt%3B%26lt%3Bspan%20style%3D%26quot%3Bcolor%3A%20rgba(0%2C%200%2C%200%2C%200)%3B%20font-family%3A%20monospace%3B%20font-size%3A%200px%3B%20text-align%3A%20start%3B%20text-wrap-mode%3A%20nowrap%3B%26quot%3B%26gt%3B%253CmxGraphModel%253E%253Croot%253E%253CmxCell%2520id%253D%25220%2522%252F%253E%253CmxCell%2520id%253D%25221%2522%2520parent%253D%25220%2522%252F%253E%253CmxCell%2520id%253D%25222%2522%2520value%253D%2522Nombre%2522%2520style%253D%2522ellipse%253BwhiteSpace%253Dwrap%253Bhtml%253D1%253Balign%253Dcenter%253B%2522%2520vertex%253D%25221%2522%2520parent%253D%25221%2522%253E%253CmxGeometry%2520x%253D%252290%2522%2520y%253D%2522140%2522%2520width%253D%2522100%2522%2520height%253D%252240%2522%2520as%253D%2522geometry%2522%252F%253E%253C%252FmxCell%253E%253C%252Froot%253E%253C%252FmxGraphModel%253E%26lt%3B%2Fspan%26gt%3B%22%20style%3D%22ellipse%3BwhiteSpace%3Dwrap%3Bhtml%3D1%3Balign%3Dcenter%3B%22%20vertex%3D%221%22%20parent%3D%221%22%3E%3CmxGeometry%20x%3D%22156%22%20y%3D%22123%22%20width%3D%22100%22%20height%3D%2240%22%20as%3D%22geometry%22%2F%3E%3C%2FmxCell%3E%3C%2Froot%3E%3C%2FmxGraphModel%3E&lt;/span&gt;" style="ellipse;whiteSpace=wrap;html=1;align=center;fillColor=#ffcccc;strokeColor=#36393d;" parent="1" vertex="1">
          <mxGeometry x="553" y="123" width="100" height="40" as="geometry" />
        </mxCell>
        <mxCell id="Rq_J5axLeS3DPgupQNah-18" value="Especialidad" style="ellipse;whiteSpace=wrap;html=1;align=center;fillColor=#ffcccc;strokeColor=#36393d;" parent="1" vertex="1">
          <mxGeometry x="699" y="241" width="100" height="40" as="geometry" />
        </mxCell>
        <mxCell id="Rq_J5axLeS3DPgupQNah-19" value="EnfermeraID" style="ellipse;whiteSpace=wrap;html=1;align=center;fontStyle=4;fillColor=#ffcccc;strokeColor=#36393d;" parent="1" vertex="1">
          <mxGeometry x="670" y="140" width="100" height="40" as="geometry" />
        </mxCell>
        <mxCell id="Rq_J5axLeS3DPgupQNah-20" value="" style="endArrow=none;html=1;rounded=0;entryX=0.5;entryY=0;entryDx=0;entryDy=0;exitX=0.5;exitY=1;exitDx=0;exitDy=0;" parent="1" source="Rq_J5axLeS3DPgupQNah-15" target="Rq_J5axLeS3DPgupQNah-16" edge="1">
          <mxGeometry width="50" height="50" relative="1" as="geometry">
            <mxPoint x="490" y="233" as="sourcePoint" />
            <mxPoint x="490" y="290" as="targetPoint" />
          </mxGeometry>
        </mxCell>
        <mxCell id="Rq_J5axLeS3DPgupQNah-21" value="" style="endArrow=none;html=1;rounded=0;entryX=0;entryY=0.5;entryDx=0;entryDy=0;exitX=1;exitY=1;exitDx=0;exitDy=0;" parent="1" source="Rq_J5axLeS3DPgupQNah-15" target="Rq_J5axLeS3DPgupQNah-18" edge="1">
          <mxGeometry width="50" height="50" relative="1" as="geometry">
            <mxPoint x="640" y="250" as="sourcePoint" />
            <mxPoint x="640" y="290" as="targetPoint" />
          </mxGeometry>
        </mxCell>
        <mxCell id="Rq_J5axLeS3DPgupQNah-22" value="" style="endArrow=none;html=1;rounded=0;exitX=0;exitY=1;exitDx=0;exitDy=0;" parent="1" source="Rq_J5axLeS3DPgupQNah-19" edge="1">
          <mxGeometry width="50" height="50" relative="1" as="geometry">
            <mxPoint x="650" y="260" as="sourcePoint" />
            <mxPoint x="680" y="200" as="targetPoint" />
          </mxGeometry>
        </mxCell>
        <mxCell id="Rq_J5axLeS3DPgupQNah-23" value="" style="endArrow=none;html=1;rounded=0;entryX=0.25;entryY=0;entryDx=0;entryDy=0;exitX=0.5;exitY=1;exitDx=0;exitDy=0;" parent="1" source="Rq_J5axLeS3DPgupQNah-17" target="Rq_J5axLeS3DPgupQNah-15" edge="1">
          <mxGeometry width="50" height="50" relative="1" as="geometry">
            <mxPoint x="660" y="270" as="sourcePoint" />
            <mxPoint x="660" y="310" as="targetPoint" />
          </mxGeometry>
        </mxCell>
        <mxCell id="Rq_J5axLeS3DPgupQNah-25" value="&lt;div&gt;Consultas&lt;/div&gt;" style="whiteSpace=wrap;html=1;align=center;fillColor=#f5f5f5;fontColor=#333333;strokeColor=#666666;" parent="1" vertex="1">
          <mxGeometry x="355" y="310" width="100" height="40" as="geometry" />
        </mxCell>
        <mxCell id="Rq_J5axLeS3DPgupQNah-26" value="Puede Tener" style="shape=rhombus;perimeter=rhombusPerimeter;whiteSpace=wrap;html=1;align=center;fillColor=#cce5ff;strokeColor=#36393d;" parent="1" vertex="1">
          <mxGeometry x="250" y="190" width="120" height="60" as="geometry" />
        </mxCell>
        <mxCell id="Rq_J5axLeS3DPgupQNah-27" value="Puede tener" style="shape=rhombus;perimeter=rhombusPerimeter;whiteSpace=wrap;html=1;align=center;fillColor=#cce5ff;strokeColor=#36393d;" parent="1" vertex="1">
          <mxGeometry x="432" y="189" width="120" height="60" as="geometry" />
        </mxCell>
        <mxCell id="Rq_J5axLeS3DPgupQNah-28" value="" style="endArrow=none;html=1;rounded=0;exitX=1;exitY=0.5;exitDx=0;exitDy=0;entryX=0;entryY=0.5;entryDx=0;entryDy=0;" parent="1" source="Rq_J5axLeS3DPgupQNah-1" target="Rq_J5axLeS3DPgupQNah-26" edge="1">
          <mxGeometry width="50" height="50" relative="1" as="geometry">
            <mxPoint x="229" y="241" as="sourcePoint" />
            <mxPoint x="279" y="241" as="targetPoint" />
          </mxGeometry>
        </mxCell>
        <mxCell id="Rq_J5axLeS3DPgupQNah-29" value="" style="endArrow=none;html=1;rounded=0;entryX=0.25;entryY=0;entryDx=0;entryDy=0;exitX=0.5;exitY=1;exitDx=0;exitDy=0;" parent="1" source="Rq_J5axLeS3DPgupQNah-26" target="Rq_J5axLeS3DPgupQNah-25" edge="1">
          <mxGeometry width="50" height="50" relative="1" as="geometry">
            <mxPoint x="240" y="250" as="sourcePoint" />
            <mxPoint x="296" y="266" as="targetPoint" />
          </mxGeometry>
        </mxCell>
        <mxCell id="Rq_J5axLeS3DPgupQNah-31" value="" style="endArrow=none;html=1;rounded=0;entryX=0.75;entryY=0;entryDx=0;entryDy=0;exitX=0.5;exitY=1;exitDx=0;exitDy=0;" parent="1" source="Rq_J5axLeS3DPgupQNah-27" target="Rq_J5axLeS3DPgupQNah-25" edge="1">
          <mxGeometry width="50" height="50" relative="1" as="geometry">
            <mxPoint x="357" y="296" as="sourcePoint" />
            <mxPoint x="395" y="410" as="targetPoint" />
          </mxGeometry>
        </mxCell>
        <mxCell id="Rq_J5axLeS3DPgupQNah-33" value="ConsultaID" style="ellipse;whiteSpace=wrap;html=1;align=center;fontStyle=4;fillColor=#ffcccc;strokeColor=#36393d;" parent="1" vertex="1">
          <mxGeometry x="215" y="330" width="100" height="40" as="geometry" />
        </mxCell>
        <mxCell id="Rq_J5axLeS3DPgupQNah-36" value="Fecha" style="ellipse;whiteSpace=wrap;html=1;align=center;fillColor=#ffcccc;strokeColor=#36393d;" parent="1" vertex="1">
          <mxGeometry x="489" y="337" width="100" height="40" as="geometry" />
        </mxCell>
        <mxCell id="Rq_J5axLeS3DPgupQNah-37" value="Diagnostico" style="ellipse;whiteSpace=wrap;html=1;align=center;fillColor=#ffcccc;strokeColor=#36393d;" parent="1" vertex="1">
          <mxGeometry x="251" y="403" width="100" height="40" as="geometry" />
        </mxCell>
        <mxCell id="Rq_J5axLeS3DPgupQNah-39" value="1" style="text;strokeColor=none;fillColor=none;spacingLeft=4;spacingRight=4;overflow=hidden;rotatable=0;points=[[0,0.5],[1,0.5]];portConstraint=eastwest;fontSize=12;whiteSpace=wrap;html=1;" parent="1" vertex="1">
          <mxGeometry x="275" y="150" width="40" height="30" as="geometry" />
        </mxCell>
        <mxCell id="Rq_J5axLeS3DPgupQNah-41" value="N" style="text;strokeColor=none;fillColor=none;spacingLeft=4;spacingRight=4;overflow=hidden;rotatable=0;points=[[0,0.5],[1,0.5]];portConstraint=eastwest;fontSize=12;whiteSpace=wrap;html=1;" parent="1" vertex="1">
          <mxGeometry x="315" y="267" width="40" height="30" as="geometry" />
        </mxCell>
        <mxCell id="Rq_J5axLeS3DPgupQNah-42" value="N" style="text;strokeColor=none;fillColor=none;spacingLeft=4;spacingRight=4;overflow=hidden;rotatable=0;points=[[0,0.5],[1,0.5]];portConstraint=eastwest;fontSize=12;whiteSpace=wrap;html=1;" parent="1" vertex="1">
          <mxGeometry x="460" y="270" width="40" height="30" as="geometry" />
        </mxCell>
        <mxCell id="Rq_J5axLeS3DPgupQNah-49" value="PacienteID" style="ellipse;whiteSpace=wrap;html=1;align=center;fontStyle=4;fillColor=#ffcccc;strokeColor=#36393d;" parent="1" vertex="1">
          <mxGeometry x="449" y="410" width="100" height="40" as="geometry" />
        </mxCell>
        <mxCell id="Rq_J5axLeS3DPgupQNah-50" value="EnfermeraID" style="ellipse;whiteSpace=wrap;html=1;align=center;fontStyle=4;fillColor=#ffcccc;strokeColor=#36393d;" parent="1" vertex="1">
          <mxGeometry x="355" y="240" width="100" height="40" as="geometry" />
        </mxCell>
        <mxCell id="Rq_J5axLeS3DPgupQNah-51" style="edgeStyle=orthogonalEdgeStyle;rounded=0;orthogonalLoop=1;jettySize=auto;html=1;exitX=0.5;exitY=1;exitDx=0;exitDy=0;" parent="1" source="Rq_J5axLeS3DPgupQNah-36" target="Rq_J5axLeS3DPgupQNah-36" edge="1">
          <mxGeometry relative="1" as="geometry" />
        </mxCell>
        <mxCell id="Rq_J5axLeS3DPgupQNah-52" value="" style="endArrow=none;html=1;rounded=0;exitX=1;exitY=0.5;exitDx=0;exitDy=0;entryX=0;entryY=0.5;entryDx=0;entryDy=0;" parent="1" source="Rq_J5axLeS3DPgupQNah-27" target="Rq_J5axLeS3DPgupQNah-15" edge="1">
          <mxGeometry width="50" height="50" relative="1" as="geometry">
            <mxPoint x="559" y="219" as="sourcePoint" />
            <mxPoint x="489" y="143" as="targetPoint" />
          </mxGeometry>
        </mxCell>
        <mxCell id="Rq_J5axLeS3DPgupQNah-53" value="" style="endArrow=none;html=1;rounded=0;entryX=0.5;entryY=0;entryDx=0;entryDy=0;exitX=0.5;exitY=1;exitDx=0;exitDy=0;" parent="1" source="Rq_J5axLeS3DPgupQNah-50" target="Rq_J5axLeS3DPgupQNah-25" edge="1">
          <mxGeometry width="50" height="50" relative="1" as="geometry">
            <mxPoint x="380" y="360" as="sourcePoint" />
            <mxPoint x="380" y="417" as="targetPoint" />
          </mxGeometry>
        </mxCell>
        <mxCell id="Rq_J5axLeS3DPgupQNah-54" value="" style="endArrow=none;html=1;rounded=0;entryX=1;entryY=0;entryDx=0;entryDy=0;exitX=0;exitY=0.5;exitDx=0;exitDy=0;" parent="1" source="Rq_J5axLeS3DPgupQNah-25" target="Rq_J5axLeS3DPgupQNah-33" edge="1">
          <mxGeometry width="50" height="50" relative="1" as="geometry">
            <mxPoint x="380" y="420" as="sourcePoint" />
            <mxPoint x="380" y="477" as="targetPoint" />
          </mxGeometry>
        </mxCell>
        <mxCell id="Rq_J5axLeS3DPgupQNah-55" value="" style="endArrow=none;html=1;rounded=0;entryX=0;entryY=0;entryDx=0;entryDy=0;exitX=1;exitY=0.5;exitDx=0;exitDy=0;" parent="1" source="Rq_J5axLeS3DPgupQNah-25" target="Rq_J5axLeS3DPgupQNah-36" edge="1">
          <mxGeometry width="50" height="50" relative="1" as="geometry">
            <mxPoint x="446" y="353.5" as="sourcePoint" />
            <mxPoint x="404" y="366.5" as="targetPoint" />
          </mxGeometry>
        </mxCell>
        <mxCell id="Rq_J5axLeS3DPgupQNah-56" value="" style="endArrow=none;html=1;rounded=0;exitX=0;exitY=0.5;exitDx=0;exitDy=0;entryX=1;entryY=0;entryDx=0;entryDy=0;" parent="1" target="Rq_J5axLeS3DPgupQNah-37" edge="1">
          <mxGeometry width="50" height="50" relative="1" as="geometry">
            <mxPoint x="375" y="350" as="sourcePoint" />
            <mxPoint x="333" y="363" as="targetPoint" />
          </mxGeometry>
        </mxCell>
        <mxCell id="Rq_J5axLeS3DPgupQNah-57" value="" style="endArrow=none;html=1;rounded=0;entryX=0;entryY=0;entryDx=0;entryDy=0;exitX=0.75;exitY=1;exitDx=0;exitDy=0;" parent="1" source="Rq_J5axLeS3DPgupQNah-25" target="Rq_J5axLeS3DPgupQNah-49" edge="1">
          <mxGeometry width="50" height="50" relative="1" as="geometry">
            <mxPoint x="385" y="360" as="sourcePoint" />
            <mxPoint x="343" y="373" as="targetPoint" />
          </mxGeometry>
        </mxCell>
        <mxCell id="Rq_J5axLeS3DPgupQNah-58" value="" style="endArrow=none;html=1;rounded=0;" parent="1" edge="1">
          <mxGeometry relative="1" as="geometry">
            <mxPoint x="370" y="270" as="sourcePoint" />
            <mxPoint x="440" y="270" as="targetPoint" />
          </mxGeometry>
        </mxCell>
        <mxCell id="Rq_J5axLeS3DPgupQNah-59" value="" style="endArrow=none;html=1;rounded=0;" parent="1" edge="1">
          <mxGeometry relative="1" as="geometry">
            <mxPoint x="464" y="440" as="sourcePoint" />
            <mxPoint x="534" y="440" as="targetPoint" />
          </mxGeometry>
        </mxCell>
        <mxCell id="Rq_J5axLeS3DPgupQNah-60" value="Puede tener" style="shape=rhombus;perimeter=rhombusPerimeter;whiteSpace=wrap;html=1;align=center;fillColor=#cce5ff;strokeColor=#36393d;" parent="1" vertex="1">
          <mxGeometry x="345" y="450" width="120" height="60" as="geometry" />
        </mxCell>
        <mxCell id="Rq_J5axLeS3DPgupQNah-61" value="Tratamientos&lt;span style=&quot;white-space: pre;&quot;&gt;&#x9;&lt;/span&gt;" style="whiteSpace=wrap;html=1;align=center;fillColor=#f5f5f5;fontColor=#333333;strokeColor=#666666;" parent="1" vertex="1">
          <mxGeometry x="355" y="582" width="100" height="40" as="geometry" />
        </mxCell>
        <mxCell id="Rq_J5axLeS3DPgupQNah-63" value="ConsultaId" style="ellipse;whiteSpace=wrap;html=1;align=center;fontStyle=4;fillColor=#ffcccc;strokeColor=#36393d;" parent="1" vertex="1">
          <mxGeometry x="215" y="630" width="100" height="40" as="geometry" />
        </mxCell>
        <mxCell id="Rq_J5axLeS3DPgupQNah-64" value="" style="endArrow=none;html=1;rounded=0;fillColor=#ffcccc;strokeColor=#36393d;" parent="1" edge="1">
          <mxGeometry relative="1" as="geometry">
            <mxPoint x="228" y="660" as="sourcePoint" />
            <mxPoint x="298" y="660" as="targetPoint" />
          </mxGeometry>
        </mxCell>
        <mxCell id="Rq_J5axLeS3DPgupQNah-65" value="TratamientoID" style="ellipse;whiteSpace=wrap;html=1;align=center;fontStyle=4;fillColor=#ffcccc;strokeColor=#36393d;" parent="1" vertex="1">
          <mxGeometry x="222" y="550" width="100" height="40" as="geometry" />
        </mxCell>
        <mxCell id="Rq_J5axLeS3DPgupQNah-66" value="Medicamento" style="ellipse;whiteSpace=wrap;html=1;align=center;fillColor=#ffcccc;strokeColor=#36393d;" parent="1" vertex="1">
          <mxGeometry x="500" y="550" width="100" height="40" as="geometry" />
        </mxCell>
        <mxCell id="Rq_J5axLeS3DPgupQNah-68" value="Dosis" style="ellipse;whiteSpace=wrap;html=1;align=center;fillColor=#ffcccc;strokeColor=#36393d;" parent="1" vertex="1">
          <mxGeometry x="354" y="670" width="100" height="40" as="geometry" />
        </mxCell>
        <mxCell id="Rq_J5axLeS3DPgupQNah-70" value="Duracion" style="ellipse;whiteSpace=wrap;html=1;align=center;fillColor=#ffcccc;strokeColor=#36393d;" parent="1" vertex="1">
          <mxGeometry x="499" y="630" width="100" height="40" as="geometry" />
        </mxCell>
        <mxCell id="Rq_J5axLeS3DPgupQNah-71" value="" style="endArrow=none;html=1;rounded=0;exitX=0.5;exitY=1;exitDx=0;exitDy=0;entryX=0.5;entryY=0;entryDx=0;entryDy=0;" parent="1" source="Rq_J5axLeS3DPgupQNah-25" target="Rq_J5axLeS3DPgupQNah-60" edge="1">
          <mxGeometry width="50" height="50" relative="1" as="geometry">
            <mxPoint x="385" y="360" as="sourcePoint" />
            <mxPoint x="346" y="419" as="targetPoint" />
          </mxGeometry>
        </mxCell>
        <mxCell id="Rq_J5axLeS3DPgupQNah-72" value="" style="endArrow=none;html=1;rounded=0;exitX=0.5;exitY=1;exitDx=0;exitDy=0;entryX=0.5;entryY=0;entryDx=0;entryDy=0;" parent="1" source="Rq_J5axLeS3DPgupQNah-60" target="Rq_J5axLeS3DPgupQNah-61" edge="1">
          <mxGeometry width="50" height="50" relative="1" as="geometry">
            <mxPoint x="415" y="360" as="sourcePoint" />
            <mxPoint x="415" y="470" as="targetPoint" />
          </mxGeometry>
        </mxCell>
        <mxCell id="Rq_J5axLeS3DPgupQNah-73" value="" style="endArrow=none;html=1;rounded=0;exitX=0;exitY=0;exitDx=0;exitDy=0;entryX=1;entryY=0;entryDx=0;entryDy=0;" parent="1" source="Rq_J5axLeS3DPgupQNah-61" target="Rq_J5axLeS3DPgupQNah-65" edge="1">
          <mxGeometry width="50" height="50" relative="1" as="geometry">
            <mxPoint x="320.5" y="470" as="sourcePoint" />
            <mxPoint x="281.5" y="529" as="targetPoint" />
          </mxGeometry>
        </mxCell>
        <mxCell id="Rq_J5axLeS3DPgupQNah-74" value="" style="endArrow=none;html=1;rounded=0;exitX=1;exitY=0;exitDx=0;exitDy=0;entryX=0;entryY=0;entryDx=0;entryDy=0;" parent="1" source="Rq_J5axLeS3DPgupQNah-61" target="Rq_J5axLeS3DPgupQNah-66" edge="1">
          <mxGeometry width="50" height="50" relative="1" as="geometry">
            <mxPoint x="553" y="470" as="sourcePoint" />
            <mxPoint x="514" y="529" as="targetPoint" />
          </mxGeometry>
        </mxCell>
        <mxCell id="Rq_J5axLeS3DPgupQNah-75" value="" style="endArrow=none;html=1;rounded=0;exitX=0;exitY=0.75;exitDx=0;exitDy=0;entryX=1;entryY=0;entryDx=0;entryDy=0;" parent="1" source="Rq_J5axLeS3DPgupQNah-61" target="Rq_J5axLeS3DPgupQNah-63" edge="1">
          <mxGeometry width="50" height="50" relative="1" as="geometry">
            <mxPoint x="233" y="611" as="sourcePoint" />
            <mxPoint x="194" y="670" as="targetPoint" />
          </mxGeometry>
        </mxCell>
        <mxCell id="Rq_J5axLeS3DPgupQNah-77" value="" style="endArrow=none;html=1;rounded=0;exitX=1;exitY=0.75;exitDx=0;exitDy=0;entryX=0;entryY=0;entryDx=0;entryDy=0;" parent="1" source="Rq_J5axLeS3DPgupQNah-61" target="Rq_J5axLeS3DPgupQNah-70" edge="1">
          <mxGeometry width="50" height="50" relative="1" as="geometry">
            <mxPoint x="680" y="550" as="sourcePoint" />
            <mxPoint x="641" y="609" as="targetPoint" />
          </mxGeometry>
        </mxCell>
        <mxCell id="Rq_J5axLeS3DPgupQNah-78" value="" style="endArrow=none;html=1;rounded=0;exitX=0.5;exitY=1;exitDx=0;exitDy=0;entryX=0.5;entryY=0;entryDx=0;entryDy=0;" parent="1" target="Rq_J5axLeS3DPgupQNah-68" edge="1">
          <mxGeometry width="50" height="50" relative="1" as="geometry">
            <mxPoint x="406" y="622" as="sourcePoint" />
            <mxPoint x="400" y="670" as="targetPoint" />
          </mxGeometry>
        </mxCell>
        <mxCell id="Rq_J5axLeS3DPgupQNah-81" value="1" style="text;strokeColor=none;fillColor=none;spacingLeft=4;spacingRight=4;overflow=hidden;rotatable=0;points=[[0,0.5],[1,0.5]];portConstraint=eastwest;fontSize=12;whiteSpace=wrap;html=1;" parent="1" vertex="1">
          <mxGeometry x="553" y="180" width="40" height="30" as="geometry" />
        </mxCell>
        <mxCell id="Rq_J5axLeS3DPgupQNah-88" value="1" style="text;strokeColor=none;fillColor=none;spacingLeft=4;spacingRight=4;overflow=hidden;rotatable=0;points=[[0,0.5],[1,0.5]];portConstraint=eastwest;fontSize=12;whiteSpace=wrap;html=1;" parent="1" vertex="1">
          <mxGeometry x="384" y="390" width="40" height="30" as="geometry" />
        </mxCell>
        <mxCell id="Rq_J5axLeS3DPgupQNah-89" value="N" style="text;strokeColor=none;fillColor=none;spacingLeft=4;spacingRight=4;overflow=hidden;rotatable=0;points=[[0,0.5],[1,0.5]];portConstraint=eastwest;fontSize=12;whiteSpace=wrap;html=1;" parent="1" vertex="1">
          <mxGeometry x="370" y="535" width="40" height="30" as="geometry" />
        </mxCell>
      </root>
    </mxGraphModel>
  </diagram>
</mxfile>
